/* XPM */
static char *_3c0e2dc18894c4aa5eb6b00e371b1baFJUhWATZzYKvQBB8[] = {
/* columns rows colors chars-per-pixel */
"32 32 3 1 ",
"  c black",
". c gray22",
"X c white",
/* pixels */
"................................",
"................................",
"..                            ..",
"..   XXXXX                    ..",
"..   X                        ..",
"..   XXX                      ..",
"..   X                        ..",
"..   XXXXX                    ..",
"..                            ..",
"..                            ..",
"..                 XX         ..",
"..                 XXXX       ..",
"..                  XXXX      ..",
"..                   XXXXX    ..",
"..  XXXXXXXXXXXXXXXXXXXXXXX   ..",
"..  XXXXXXXXXXXXXXXXXXXXXXX   ..",
"..                    XXXX    ..",
"..                   XXXX     ..",
"..                 XXXXX      ..",
"..                XXXX        ..",
"..                XXX         ..",
"..                            ..",
"..                            ..",
"..                            ..",
"..                            ..",
"..                            ..",
"..                            ..",
"..                            ..",
"..                            ..",
"..                            ..",
"................................",
"................................"
};
