/* XPM */
static char *result[] = {
/* columns rows colors chars-per-pixel */
"32 32 6 1 ",
"  c #A8AA9A",
". c gray61",
"X c #8A8A8E",
"o c gray50",
"O c #747474",
"+ c #686868",
/* pixels */
"ooOOo.  .XX.OOoO+X.XoOX.ooXXXoOO",
".XX..XoXX.XXXoOX.  .XXoXXoO++Oo.",
"ooXXoXoOoXXXXX. .XXX.ooOoOo..X.X",
"oX.X.XXoOoXX..XXXooXoO++OoXXXoXX",
"O.XoX..X...XoXXoO++O+X  .X.XoOOo",
"oOoOOXXXoXX.XXooXX.  XXXX.XooXoO",
"oXXXoOoXXoXoOoX. .X.XX.ooXXoXXO+",
" .X.Xo++OooOX..X.XXX..XXXoOooO+X",
"XX.X.  .oO.  .XoXooX.XXXXXo++OX.",
"oXXoX.XX .XOoXXXXXOXXoXOooXoX.oo",
"XoXXXXoooXXoOOXoXXoOoO++OX  .XXX",
".XoOoX.XXooXXoOXoOoO++X  ..XX.Xo",
"X..XOOoXooX.XXoOO++X.X.X. XooXoX",
"Xo..oXXX.  XXo+oX.  .XXXoX..XoOo",
"XOoXXX. .XXXoOX  XX.XoXXXXXoXXOX",
".XoOXoO+OOoXo..XXoOX..XXooXoOo. ",
"oXXo++OX.XOoXoooXXoOXXoXXO+O  .X",
"..XXoX   .XXooOXXXXoXoO++oX .Xoo",
"XoOOX .XXX.oXO++oXoOooX  .....Xo",
"XXoX.XX.XoXXXXoO++OoX  XoX.Xoo.X",
"oXXoXXoXXXOoXooOX.  .XX..XXooXXX",
"XoXXXoXooOO++OOooXX.oooXX.XXoOOo",
".XooXXXXO+OoXX  .OoXXoXXoXoOoXoX",
"XoO++OXoOX.Xo..XooO+OoXoXOOoX...",
"O+ooXX.   XX.XX.XoXXo++O+OXX.oXo",
"X. XX .XXXooXXoooX..  .XoXoXXoOO",
"XXo .XoXoooXXoXX.  XXooXXoOooOoX",
"oOX.XoXXXXXoX. .XX..XXXoXXoOX  .",
"XoOOoXoooX.  .XXXXXooooX..XX .XX",
"oXoXoXXoOOoX.XXooXXXXoO+oX..XXoX",
"XoXXXXoOXoOoX.XXXOooOO+X.ooXooXX",
"oOoXoOOX.  XoXoXO++OXo..XXXooXXX"
};
