/* XPM */
static char *result[] = {
/* columns rows colors chars-per-pixel */
"32 32 10 1 ",
"  c #997140",
". c #8B673C",
"X c #805E36",
"o c #785836",
"O c #6B5332",
"+ c #664D28",
"@ c #453F3B",
"# c #553A1F",
"$ c #302C29",
"% c #28221C",
/* pixels */
".       .       .       .       ",
"+ .X.X.o+ X.X.Xo+ X.oXXo+ .X..oo",
"+ .X.Xoo#.X.Xo.o+ X.oX.X+..X..Xo",
"+..o..Xo+.XX.o.o#..Xo..X# XX.o.o",
"#.XoX.Xo#.Xo.oXo#..oX.Xo+ .oXo.o",
"# XoXXoo# .o.oXo+ X.X.oo# XoooXo",
"@$@@@@@@@@$$@$$$$$$$@@$@@@@$$$@@",
"%%$$$%$%$$$%%$%$$%%%$%$$$$$%%$%$",
"%%%%%%%%%%%%%%%%%%%%%%%%%%%%%%%%",
"#XXoXXoo#XXXooXo#XXXoXoo#XXXoXXo",
"#..XXoXo#.XoXXoo#.X.oXXo#.oooXoo",
"# X.Xo.o#.XoX.oX#..XoX.o+ Xo..Xo",
"+.X..o.X# Xo.XoX+ XXoo.o# XoXXXo",
"# X..o.X# .o.X.oO Xo.oXX# .XoXoX",
"+ .X.XXo+ .X.X.oO .X.oXX+ .XoXoo",
"O .o.XoX+ ...oXXO....X.XO...o.XX",
"O .oX.ooO .X.oXo+..X...oO X.o..X",
"+ XoX.XoO..o.oXoO .o.X.o+ XoXX.X",
"# .XX..oO XoXoXo+.Xo.o.X# XX.o.X",
"# Xo.X.oO XXoo.X# X..o.X# X..o.X",
"#.XX.X.X+.X.oX.X# X.Xo.X+ X.XoXo",
"#.X..o.X#...oX.o#...XoXX+.X.XXoo",
"#XX.XoXX#X.XXo.X+X.XXoXX+XXX.XXo",
"$$$@$@@@@@@$$@@$$$$$$$@@$@$$@@@$",
"$%%$%$$$$%$%%%$$%$$$$%%$%%$%$$%$",
"%%%%%%%%%%%%%%%%%%%%%%%%%%%%%%%%",
"#XXoXooo#XXoXoXX#XXoXooX#XoXXooX",
"+ .X.XoX+..X.o.o#..o.X.X#.X..oXX",
"+ .o..Xo# ..Xo.X+ .X.X.o#.XX.X.X",
"+.XoX.Xo+ X.oXoX+ X..oXo+ .X...o",
"# .oX..X+.X.o..o# X.XoXo+.Xo.X.o",
"#oXoXXoo#ooXXooo#XoXoooo#XooooXo"
};
