/* XPM */
static char *_de9808968b1457ca66aa61ab0faa3bcCi3eCoKvlODwi6lm[] = {
/* columns rows colors chars-per-pixel */
"32 32 6 1 ",
"  c #967441",
". c #9F844D",
"X c #AF8F55",
"o c #B8945F",
"O c #C29D62",
"+ c #CEAA71",
/* pixels */
"++++++OOOO+++++++++++++OO+++OOOO",
"+...  ..       ..       .  ..  O",
"+.++++O+OO +++++OO++O.++++O++O.o",
"+.+oooXXoO.+oXXoXooXO +o.ooXXO.O",
"+ +XooooXO +XXoooXXXX +oXXoooO.O",
"+ +oX..ooO.+..oXXoX.X.+XXoooXO.O",
"+ OooXXXoX.OoX..ooXX..OoX..XX..o",
"+ O.XooXX..OXXoXXooX. OXXXX... o",
"O OX..XoX. OXooooXXoX OooXXoXX o",
"+ OoooooXX OoX.XooXXX OoXXooXX o",
"+.oXXo..X. oooX..ooX. ooooXXX. o",
"O.ooXXoX.. oXXXoXXX.. ooX..X.. o",
"O oXXooXX. oXXoooXXX. o...XXX. O",
"O oooXX... oooXXXX... ooXX.... O",
"+.         ..  .      ..       O",
"++++O++O++++++OOOOooOOooOOOoOO++",
"OOXXXXoXooXXXXXoXXXXXXXXXXooXXXX",
"O.... ..    ...  .      .   ...X",
"O.+++++O+O +++++O++OO ++++O++O.X",
"+.+oXXoooO +ooXXooooO +ooXXoXO.o",
"+ +oooX.oO +oXXoXXo.X +XXooooO.o",
"+ +XXooXXO +ooooooXX. +XoooXXO.o",
"+ OoooXXXX OXXo.XooX. OoX..XXX.o",
"+ OX.XooX. Oo..XoooXX O..XXX...o",
"O OoX..XXX.OXXoooXXX..OoooXXX. X",
"+ OXooooX..OoooXXoXXX.OXXooXXX X",
"+.o..ooX.. oXXooX..X..ooooXX.. X",
"O.oooXXXXX ooXXXoooX..ooXXooX. X",
"O ooXX..X. XooooooXX. oXX..XX. .",
"O oooXX... XXoX..X... ooXX.... .",
"X           ....      ..       .",
"XXX........XXXXXXXXXXXX........."
};
