/* XPM */
static char *_3c0e2dc18894c4aa5eb6b00e371b1baFJUhWATZzYKvQBB8[] = {
/* columns rows colors chars-per-pixel */
"32 32 2 1 ",
". c #B3005A",
"X c #133337",
/* pixels */
"XX..XX..XX..XX..XX..XX..XX..XX..",
"XX..XX..XX..XX..XX..XX..XX..XX..",
"..XX..XX..XX..XX..XX..XX..XX..XX",
"..XX..XX..XX..XX..XX..XX..XX..XX",
"XX..XX..XX..XX..XX..XX..XX..XX..",
"XX..XX..XX..XX..XX..XX..XX..XX..",
"..XX..XX..XX..XX..XX..XX..XX..XX",
"..XX..XX..XX..XX..XX..XX..XX..XX",
"XX..XX..XX..XX..XX..XX..XX..XX..",
"XX..XX..XX..XX..XX..XX..XX..XX..",
"..XX..XX..XX..XX..XX..XX..XX..XX",
"..XX..XX..XX..XX..XX..XX..XX..XX",
"XX..XX..XX..XX..XX..XX..XX..XX..",
"XX..XX..XX..XX..XX..XX..XX..XX..",
"..XX..XX..XX..XX..XX..XX..XX..XX",
"..XX..XX..XX..XX..XX..XX..XX..XX",
"XX..XX..XX..XX..XX..XX..XX..XX..",
"XX..XX..XX..XX..XX..XX..XX..XX..",
"..XX..XX..XX..XX..XX..XX..XX..XX",
"..XX..XX..XX..XX..XX..XX..XX..XX",
"XX..XX..XX..XX..XX..XX..XX..XX..",
"XX..XX..XX..XX..XX..XX..XX..XX..",
"..XX..XX..XX..XX..XX..XX..XX..XX",
"..XX..XX..XX..XX..XX..XX..XX..XX",
"XX..XX..XX..XX..XX..XX..XX..XX..",
"XX..XX..XX..XX..XX..XX..XX..XX..",
"..XX..XX..XX..XX..XX..XX..XX..XX",
"..XX..XX..XX..XX..XX..XX..XX..XX",
"XX..XX..XX..XX..XX..XX..XX..XX..",
"XX..XX..XX..XX..XX..XX..XX..XX..",
"..XX..XX..XX..XX..XX..XX..XX..XX",
"..XX..XX..XX..XX..XX..XX..XX..XX"
};
