/* XPM */
static char *_480ea14b1584d87b80020986492c8b70HWeq3i2xVN2YQ5b[] = {
/* columns rows colors chars-per-pixel */
"32 32 7 1 ",
"  c gray43",
". c #585858",
"X c #4B4C4F",
"o c #414141",
"O c #383737",
"+ c #2D2D2D",
"@ c gray14",
/* pixels */
".                            ..+",
" .............................o+",
" ...............XX.X.......X..O@",
" ................XX.........X.O+",
" ....XXX.....XXX.......XX..XX.o@",
" .X.X..XX..X..X.X.......XXXoXXo@",
" ..XXXX...X..X.....XX.X..XooXoo@",
" .X.XX..XXXXooX.XX..XXo.XoXXoOo@",
" .oXX.XXXoXooXooX.XXooXoooXoOOo@",
".XOXXXoXoooXoooXXXooXooOoOooOoO+",
".XOoXXXoXoOoOOooXXXoOOOoooOOOoO+",
"XXOOoXoooOOOOooooooOOoOoOOO+OO+@",
"XooOOoOOooOOoOoOOoOooOOO+OO++O@@",
"XoOOoOOoOO+OOOOOoOOOO+++OO+O++@@",
"oooOOO++++++++OO+OO++++++++++@@+",
"++@+@@@@++++@@@@@@++@@@+@@@@@@+@",
"     ..       .@.               ",
"..............X@ ...............",
".....X.....X.Xo@ ...............",
"..X.XXX....XXXO@ .........X.....",
"..XXXX......XXO@ ..X....XX......",
"...XXX.XX....Xo@ .XX.X.XXoX.....",
".XXXoXXX.X.X.XO@ ...X..X.ooXX.X.",
"X.XXXoXoX..XXoO@ .X.XX..XXoX...X",
"XXoXooooXXX.Xo+@ .XXoXX..oX.XX..",
"XoXoOooXXoXXoO+@...XooXXXooXX..X",
"ooooOOOooXooooO@..XooooXoXooXXXX",
"OooOOOoOooOOoOO@.XooOoXoooOooXoo",
"OoO+O+OOOOoOOO+@.oXoOOooOoOOoooO",
"OOO++OO++OOoO++@XooOOOOooOOooOOo",
"OO++++++OO+++O+@oOOOOOOOOOOOOOOO",
"@+++++@@@@@+@@@+@@@@+@@+@+++++@@"
};
