/* XPM */
static char *d606f4e71a3c445eaf12998d242077f5Kb7I041xOmqORKv5[] = {
/* columns rows colors chars-per-pixel */
"32 32 6 1 ",
"  c #585858",
". c #4B4C4F",
"X c #414141",
"o c #383737",
"O c #2D2D2D",
"+ c gray14",
/* pixels */
"OOOOO+O+OOOO++++OOOO++++++OOOO++",
"XXXoXXoO+     ..         .  ..X+",
"XoooooO++ ................X..XoO",
"XoooOO+++ ....XX.XXX.XX....XXXoO",
"ooOooOO++ ..X..XX.XXXX.XX.X.XoO+",
"XOooOoO++....XXXXXX.oXXoXXoXoXO+",
"oOoO+O+++ .XXX.XXXXXXooXXXXoOoOO",
"oOOOO++++.X.XXXooXXoooXoXooOoOO+",
"OO++OO+++.XXXXoXooXXooooooOOOO++",
"O+O++++++XooOooOOOoOOOoOOOOO++++",
"+++++++++++OOO+++++O+O++O+O+++++",
"       .  .. ...X+XXXoXXoXoOooO+",
" .........XX..XXoOXoOOOoooooOO++",
" ..XXX.X.X.XXXoXo+XooOoOoOOooO++",
".X..X...XXXX.XXoO+oOooOOOOooOO++",
" ..XXXX..XoXooXoOOooOOOO+OOO++++",
".XX.XXXoXoooXoooO+oOO+++OO+OO+++",
".XXXXXoooXoOooOoO++OOOO+++O+++O+",
"XooXoooOOoooOOOO++++++++++++O+++",
"++OO+O++OO+++++O++++++++++++++++",
"+XXXXoXoo+      .    .  ...X...X",
"OXooOOoOO+ .....X......XXX..XXXo",
"+XoOOOOO++ ..XX..X..XX..X.XooXoo",
"+oOOoOO+++..X.XXXXXoX.XXXoooXoOO",
"+oooO+OO++ ..XooXooXXXXooXoooOo+",
"+OoOOO++++.XXXXXooXooXooOOoOO+O+",
"+OO+++++++XooooOOoOOOoOOoOOOOO++",
"++++++++++OO+O++O++O+++++O+O++++",
"...X....X....XOXXXXoooOoO+....X+",
".XXXoXooXXoXXoOXooooOooO++.XXoX+",
".XXoXoXooOOoXoOXoOoOooOO++.XXXo+",
"XooooooOOoOOooOoOOOOOOO+++Xoooo+"
};
