/* XPM */
static char *fb390891e96444b1876878dd53307a39q90zB68psholXItP[] = {
/* columns rows colors chars-per-pixel */
"32 32 132 2 ",
"   c #6F2D9B",
".  c #722F9E",
"X  c #6F2EA2",
"o  c #742FA2",
"O  c #762FA8",
"+  c #7530A4",
"@  c #7A33A5",
"#  c #7730A8",
"$  c #7C33AC",
"%  c #7E34B1",
"&  c #8136AE",
"*  c #8439AE",
"=  c #8337B2",
"-  c #8739B2",
";  c #863AB2",
":  c #8539B2",
">  c #8538B4",
",  c #8539B4",
"<  c #8539B5",
"1  c #8739B4",
"2  c #8638B5",
"3  c #8738B5",
"4  c #8639B5",
"5  c #8739B5",
"6  c #8739B2",
"7  c #8839B2",
"8  c #8839B3",
"9  c #893AB2",
"0  c #883AB3",
"q  c #893AB3",
"w  c #883BB3",
"e  c #893BB3",
"r  c #8A3BB3",
"t  c #8A3DB3",
"y  c #8A3EB3",
"u  c #8839B4",
"i  c #8939B4",
"p  c #8839B5",
"a  c #883AB4",
"s  c #893AB4",
"d  c #883AB5",
"f  c #893AB5",
"g  c #8A3AB4",
"h  c #8A3BB4",
"j  c #8939B6",
"k  c #8839B7",
"l  c #8939B7",
"z  c #883AB6",
"x  c #893AB7",
"c  c #893BB7",
"v  c #8A3AB6",
"b  c #8A3AB7",
"n  c #8B3BB7",
"m  c #8C3AB7",
"M  c #8B3DB5",
"N  c #8A3CB6",
"B  c #8C3CB4",
"V  c #8C3DB4",
"C  c #8D3DB5",
"Z  c #8E3DB5",
"A  c #8D3DB7",
"S  c #8E3CB6",
"D  c #8E3DB6",
"F  c #8D3EB7",
"G  c #8C3BB6",
"H  c #8739B8",
"J  c #8738BA",
"K  c #893AB8",
"L  c #8A3BB8",
"P  c #8A3AB9",
"I  c #8939BA",
"U  c #8A39BA",
"Y  c #8D3BB8",
"T  c #8C3BBA",
"R  c #8C3BBB",
"E  c #8A3CB8",
"W  c #8D3DB8",
"Q  c #8D3EB8",
"!  c #8E3EB8",
"~  c #8F3FB8",
"^  c #8C3DBA",
"/  c #8D3DBA",
"(  c #8E3DBA",
")  c #8B3BBC",
"_  c #8B3ABF",
"`  c #8C3BBC",
"'  c #8D3BBD",
"]  c #8D3BBF",
"[  c #8D3CBB",
"{  c #903EB7",
"}  c #913DB8",
"|  c #913FB8",
" . c #903EBA",
".. c #903FBA",
"X. c #903EBB",
"o. c #913DB9",
"O. c #8E40B7",
"+. c #9343BA",
"@. c #9342BB",
"#. c #9340BC",
"$. c #9241BC",
"%. c #9340BD",
"&. c #9341BD",
"*. c #9440BD",
"=. c #9540BD",
"-. c #9740BC",
";. c #9542BE",
":. c #9542BF",
">. c #9643BE",
",. c #9742BF",
"<. c #9743BF",
"1. c #9545BC",
"2. c #9642BD",
"3. c #9840BD",
"4. c #9840BD",
"5. c #8E3BC0",
"6. c #8E3BC3",
"7. c #8E3BC3",
"8. c #903BC1",
"9. c #903BC1",
"0. c #9441C0",
"q. c #9742C1",
"w. c #9945C1",
"e. c #9A45C2",
"r. c #9B45C3",
"t. c #9A48C2",
"y. c #A747C6",
"u. c #A747C6",
"i. c #A149C9",
"p. c #AC49CA",
"a. c #B54DCF",
"s. c #B54DCF",
/* pixels */
"$ : K $ = = & & % : h $ 5 5.# % : : 8 $ | 7 G O : 4.: d # :.) % ",
"* : K = @ # @ a H < 5.: 5 $ = < 8 X S 8 G | & = ^ % 5 % : d $ $ ",
"= = J $ 5 $ ^ : % h ( ) : # @ ) G 8 8 8 8 : & t = h @.@ : * $ : ",
"@.@.$ $ $ : h $   S % $ = 5 $ + | | B | & 8 8 = & @ $ O K ^ $ % ",
"a # % h % ^ e.5 @ $ # 5 = @ ] G } * } 7 = O 7 & *.a @ ^ 8 e.& $ ",
"& @.@ 7.$ : a & & 5 & $ & = : $ 7 ] # & 8 G s.P a = 2 a * 5 * + ",
"o e.@ = & : a = @ O $ a a = J = 7 & = 2 7 7 B $ % 8 o :.| @ r.^ ",
"O : q.: = % H % : & S = 2 a | P = $ * m | } } & @ & @ K a : | + ",
"= ^ % 5 | | $ & $ 5 8 & . } $ $ j = & + $ } G 8 ( $ . 9.& & X.| ",
"t = a ^ = @ = G = a *.2 & i # 2 = @ j { G G | & = = 8 = 7 G } X.",
"5 % @ $ $ +.$ ] $ 5 a h $ X.& $ & * $ $ 7 G | = G = u.7 7 * = } ",
"$ @.^ @ @ *.$ = @ G 5 $ $ # = m = & $ & X.* 8 P : | | } G B u.7 ",
"^ a = 2 # : *.: a $ X.X.= 8 G 7 4.P K = = o.B + 7 * 7 * } | } $ ",
"$ $ 8 o : ^ % 5 * : P $ * U & a $ a = & 7 7 8 B G 7 $ * o.8 $ } ",
"= @ = @ B = a S = = * $ = = = j = X.8 a | G G @ 7 7 } 7 8 G 8 G ",
"5 ^ $ o a $ & & @ j | & = 2 % $ & r.a & } 8 = = G G 8 | o.7 7 | ",
"G } G 7 & X.i & S 8 <.= $ } G = 7 G S & : | * 2 G 8 } } 7 X.* & ",
"G s.G 7 j } 7 j 8 8 a : @ $ = 8 $ j $ B S u.| $ | s.o.7 7 7 7 7 ",
"} o } G & $ 8 + 2.| @ r.P a 8 & : : a S S S S 5 } B 7 G G | 7 & ",
"} = G G 2 # & & G : 2 X.@ | & B ^ & & = 8 $ 8 $ = | } p.X.u.G & ",
"$ G } o.7 G & @ X.& * X.| 2 * = G = $ & * } 2 & | G | 8 } O G 8 ",
"G & 7 B } = G 7 G 7 P s.8 8 8 | | } 7 } B } $ $ = 7 G : G } 7 7 ",
"= = & & = = a & m ] @ = 1.| G G G B 7 $ & = G 2 @ @ @ 8 K = ] & ",
"@ @ @ 8 U = ] = } $ = = G 8 8 } } } G 7 = = H $ = $ ^ = = K | ^ ",
": & ^ = = a | ^ } @ @ ] 9.$ G G & | 8 | &.@.$ $ $ : 8 $ . S $ % ",
"$ = a $ . B % $ G a $ O u.G & 7 } G u.| d @ % h % | e.j @ & O = ",
"% ^ e.2 @ & O = G } * & 7 G G } } G : 8 $ &.$ 5.@ a 2 ^ @ q.% @ ",
"@ H 5 ^ $ q.% @ X } } G X.7 7 G & o.4.: + t.# * # P : # # # % _ ",
"@ K = @ O @ % _ B o.B } 8 = G 7 8 8 | } O : *.: a @ *.G 5 G | } ",
"5 # q.] % a S a } = } 7 u.7 } G 8 | G G : ^ % 5 $ = K G 5 : 7 X.",
"$ : a $ $ _ $ 8 $ o.B } 8 B G u.* } 7 7 h : a ^ $ 5 & & G 2 = 7 ",
"$ : = @ = $ & K 7 $ 7 s.7 | } 7 } o.| & : * @ % + K ^ $ = = = @ "
};
