/* XPM */
static char *d29d5771f7374363aae07979b5605648X4qhaYWZA3c6DRlm[] = {
/* columns rows colors chars-per-pixel */
"32 32 8 1 ",
"  c #8308E4",
". c #6006AB",
"X c #3B2754",
"o c #271E3D",
"O c #2B0178",
"+ c #100C1C",
"@ c #06030B",
"# c #000001",
/* pixels */
"@######O@###@##@@++oXo+@#@@oXXXo",
"###@@##@OOO+##@+++XX++@#+@oXXoo+",
"##@@@@++@@+O@@++Xoo+@@.#+oXoo+@@",
"#@@@+++++++@#++oo++@@@#.ooo+@@@@",
"##++ooXXX+@#@+oo+o+@@@O.+++o+@@#",
"#@+oXXoXoo+@++o+@@@+#@ @+++++O@#",
"O+Xooo++++o.@++++@@@@.O@##.+O@##",
"#OoX++o++++@..O+@+O .O#####.O###",
"@+o+O++++++OO...   O##@@@##O###@",
"+++++O+@O.OO.@# . @#@@@@@@##O###",
"++++@O .OO@@@##@O..@+o+o@@@#.O##",
"@+@O. O#+@++++oo+@O.oXXo+O###..O",
".  .O#@++oXooXO++#@+XXo@.###@@O.",
"#@@#@@+oXXXXo+@O@@+Xo+@.O@#@@+@@",
"#@@@++oXXo++o.OOO@@@@@. @@oXXo+@",
"###@+oXo++++ O++.O@@@O O+oXXo+o@",
"##@++oo+++@ .++oo.OO#. ++Xoo++++",
"@#+++o+@@O@ ++o+@@@  .++oo+++++@",
"OXo++@@@@#O.OXo@@@##.O#+o+++++.O",
"oOO#.#@@.O.O..+@@@#O.##@++@+..@o",
"++OOO.O.  O#+@O@@##O+#@##@#O#@+o",
"+@##OO@@@O ##@@@##+++++@##@#@+o+",
"+++@#@O@@@O @@+#@++oXXo+##@+++@+",
"#+@+++@O@@@..@@+@oXXoo++@+++..O+",
"#@+ooXo+@@@ O@++oXo+.++@++o.OO##",
"@+XXXo++@@O.++++o++++.+++oOO@o##",
"+XXo++@@O..O@+++++++@.O++O.Xo+#@",
"oo+oo++O.O@#@#o++++@.O..O.+o+++@",
"@++oo+O.#@+##o++@++. #@O..O+@@@+",
"@@oo@@.O++#@+oo++@.O+@##@OO@@@@@",
"+++@##.++@@+o+oo+@O@@@###O.O@@++",
"+@@###O@+@#@+@@+@@+O@@@###. ++o+"
};
